<svg xmlns="http://www.w3.org/2000/svg" xmlns:xlink="http://www.w3.org/1999/xlink" viewBox="0 0 838.02 167.55"><defs><style>.cls-1{fill:none;}.cls-2{clip-path:url(#clip-path);}.cls-3{fill:#69dde0;}.cls-4{clip-path:url(#clip-path-2);}.cls-5{fill:#00cfd4;}.cls-6{clip-path:url(#clip-path-3);}.cls-7{fill:#009ea7;}.cls-8{clip-path:url(#clip-path-4);}.cls-9{fill:#009c37;}.cls-10{fill:#052b3a;}</style><clipPath id="clip-path"><path class="cls-1" d="M185.42,1.31,156.77,11.89A21.74,21.74,0,0,0,144,39.64a21.27,21.27,0,0,0,27.36,12.94L200,42a21.75,21.75,0,0,0,12.76-27.75A21.39,21.39,0,0,0,192.72,0a21.09,21.09,0,0,0-7.3,1.31"/></clipPath><clipPath id="clip-path-2"><path class="cls-1" d="M185.69,19.26,145.94,33.91A21.47,21.47,0,0,0,133.3,61.35a21.09,21.09,0,0,0,27.11,12.8L200.16,59.5A21.49,21.49,0,0,0,212.8,32.06,21.18,21.18,0,0,0,192.92,18a20.88,20.88,0,0,0-7.23,1.3"/></clipPath><clipPath id="clip-path-3"><path class="cls-1" d="M185,40.83,124.9,62.71a21.69,21.69,0,0,0-14.26,20.76h0v84.08h0c.2-8.38,2.55-53,29.45-64.06.67-.27,1.29-.55,1.89-.82l57.84-21.06A21.7,21.7,0,1,0,185,40.83"/></clipPath><clipPath id="clip-path-4"><path class="cls-1" d="M1.31,53.8A21.79,21.79,0,0,0,0,61.14v.15A21.7,21.7,0,0,0,14.27,81.61L72.1,102.67c.6.27,1.23.54,1.9.82,26.9,11.05,29.25,55.68,29.45,64.06h0V83.47h0A21.7,21.7,0,0,0,89.18,62.71L29.1,40.83a21.67,21.67,0,0,0-27.79,13"/></clipPath></defs><g id="Layer_2" data-name="Layer 2"><g id="Layer_1-2" data-name="Layer 1"><g class="cls-2"><rect class="cls-3" x="129.73" y="-12.99" width="97.34" height="79.86"/></g><g class="cls-4"><rect class="cls-5" x="119.03" y="4.97" width="108.04" height="83.46"/></g><g class="cls-6"><rect class="cls-7" x="97.62" y="26.53" width="129.45" height="155.31"/></g><g class="cls-8"><rect class="cls-9" x="-12.99" y="26.53" width="129.45" height="155.31"/></g><path class="cls-10" d="M215.92,100.56h4.83v62h38.18v4.35h-43Z"/><path class="cls-10" d="M271.34,100.56h4.83v66.31h-4.83Z"/><path class="cls-10" d="M346.65,134h4.64v24.82a28.85,28.85,0,0,1-10.56,6.35,39.39,39.39,0,0,1-13.12,2.18A36.12,36.12,0,0,1,309.85,163a32,32,0,0,1-12.41-12,35.27,35.27,0,0,1,0-34.48,31.9,31.9,0,0,1,12.41-12,36.3,36.3,0,0,1,17.85-4.36,37.43,37.43,0,0,1,13.41,2.32,28.77,28.77,0,0,1,10.47,6.77l-3,3.22a25,25,0,0,0-9.33-6,33.67,33.67,0,0,0-11.41-1.85,31.3,31.3,0,0,0-15.4,3.79,27.68,27.68,0,0,0-10.75,10.47,29.1,29.1,0,0,0-3.88,14.92,28.67,28.67,0,0,0,3.93,14.82,28.36,28.36,0,0,0,10.75,10.52,30.74,30.74,0,0,0,15.35,3.84q11.37,0,18.85-6.07Z"/><path class="cls-10" d="M426.51,100.56v66.31h-4.83V135.33H377.34v31.54h-4.83V100.56h4.83v30.51h44.34V100.56Z"/><path class="cls-10" d="M462.32,104.92H438.45v-4.36H491v4.36H467.15v62h-4.83Z"/><path class="cls-10" d="M557,100.56v66.31h-4.84V135.33H507.79v31.54H503V100.56h4.83v30.51h44.33V100.56Z"/><path class="cls-10" d="M590.58,162.94a32.38,32.38,0,0,1-12.36-12.08,34.91,34.91,0,0,1,0-34.29,32.52,32.52,0,0,1,12.36-12.08,37.63,37.63,0,0,1,35.24,0,32,32,0,0,1,12.37,12,35.27,35.27,0,0,1,0,34.48,32.07,32.07,0,0,1-12.37,12,37.59,37.59,0,0,1-35.24-.05Zm32.69-3.83a28,28,0,0,0,10.61-10.47,30.63,30.63,0,0,0,0-29.84,28,28,0,0,0-10.61-10.47,31.92,31.92,0,0,0-30.17,0,27.85,27.85,0,0,0-10.66,10.47,30.56,30.56,0,0,0,0,29.84,27.85,27.85,0,0,0,10.66,10.47,31.92,31.92,0,0,0,30.17,0Z"/><path class="cls-10" d="M665.85,160.05q-7-7.29-7-21.31V100.56h4.83v38q0,12.22,5.59,18.28t16.2,6.07q10.5,0,16.1-6.07t5.59-18.28v-38H712v38.18q0,14-7,21.31t-19.61,7.3Q672.81,167.35,665.85,160.05Z"/><path class="cls-10" d="M738.13,164.84a26.73,26.73,0,0,1-10.28-6.49l2.18-3.6a25.58,25.58,0,0,0,9.42,6,33.79,33.79,0,0,0,12.46,2.32q9.48,0,14.31-3.59a11.18,11.18,0,0,0,4.83-9.38,9.8,9.8,0,0,0-2.56-7.11,16.94,16.94,0,0,0-6.35-4.07A85.81,85.81,0,0,0,751.91,136a101.63,101.63,0,0,1-11.7-3.5,18.71,18.71,0,0,1-7.48-5.26q-3.08-3.56-3.08-9.52a16.17,16.17,0,0,1,2.56-8.86,17.38,17.38,0,0,1,7.81-6.39,32,32,0,0,1,13.12-2.37,37.09,37.09,0,0,1,10.8,1.61,31.69,31.69,0,0,1,9.19,4.36l-1.8,3.88a30.75,30.75,0,0,0-8.76-4.17,33.25,33.25,0,0,0-9.43-1.42q-9.18,0-13.92,3.7a11.57,11.57,0,0,0-4.74,9.56,9.8,9.8,0,0,0,2.56,7.11,16.86,16.86,0,0,0,6.35,4.07,94.21,94.21,0,0,0,10.32,3,95.92,95.92,0,0,1,11.65,3.51,19.1,19.1,0,0,1,7.44,5.16q3.08,3.47,3.08,9.33a15.72,15.72,0,0,1-2.61,8.81,17.63,17.63,0,0,1-8,6.35A33,33,0,0,1,752,167.35,38.68,38.68,0,0,1,738.13,164.84Z"/><path class="cls-10" d="M838,162.52v4.35H792.27V100.56H836.6v4.36H797.1v26.15h35.33v4.26H797.1v27.19Z"/></g></g></svg>